# xmcd
#
# Track frame offsets:
#	182
#	14730
#	27567
#	43045
#	53692
#	68707
#	78835
#	93510
#	109647
#	126455
#	138902
#	154985
#
# Disc length: 2234 seconds
#
# Revision: 1
# Processed by: cddbd v1.5.2PL0 Copyright (c) Steve Scherf et al.
# Submitted via: audiograbber 1.83.01
#
DISCID=a108b80c
DTITLE=Διάφοροι - Τα νοσταλγικά
DYEAR=1900
DGENRE=
TTITLE0=Ενας φίλος ήρθε απόψε απ'τα παλιά
TTITLE1=Το τανγκό της Αθήνας
TTITLE2=Ποιός σε πήρε καί μου'φυγες
TTITLE3=Γέλα αγάπα καί τραγούδα
TTITLE4=Ηρθες σαν την άνοιξη
TTITLE5=Αστα τα μαλάκια σου
TTITLE6=Κάποιος κάπου κάποτε
TTITLE7=Οταν γελάς
TTITLE8=Ξαναβλέπω το μικρό το αμαξάκι
TTITLE9=Εγώ θα κόψω το κρασί
TTITLE10=Ενα βράδυ που'βρεχε
TTITLE11=Αρχισαν τα όργανα
EXTD=
EXTT0=
EXTT1=
EXTT2=
EXTT3=
EXTT4=
EXTT5=
EXTT6=
EXTT7=
EXTT8=
EXTT9=
EXTT10=
EXTT11=
PLAYORDER=
